HIERARCHY
ROOT Hips
{
	OFFSET 0.000000 97.167313 0.000000
	CHANNELS 6 Xposition Yposition Zposition Xrotation Yrotation Zrotation
	JOINT Spine
	{
		OFFSET 0.000000 13.784798 0.064400
		CHANNELS 3 Xrotation Yrotation Zrotation
		JOINT Spine1
		{
			OFFSET 0.000000 12.037903 0.404700
			CHANNELS 3 Xrotation Yrotation Zrotation
			JOINT Spine2
			{
				OFFSET 0.000000 17.795601 0.420200
				CHANNELS 3 Xrotation Yrotation Zrotation
				JOINT Neck
				{
					OFFSET 0.000000 39.131302 11.954600
					CHANNELS 3 Xrotation Yrotation Zrotation
					JOINT Head
					{
						OFFSET 0.000000 14.456192 15.627699
						CHANNELS 3 Xrotation Yrotation Zrotation
						JOINT HeadTop_End
						{
							OFFSET 0.000000 15.703506 7.603401
							CHANNELS 3 Xrotation Yrotation Zrotation
							End Site
							{
								OFFSET 0.000000 17.447403 0.000000
							}
						}
					}
				}
				JOINT LeftShoulder
				{
					OFFSET 17.399500 24.608795 1.168800
					CHANNELS 3 Xrotation Yrotation Zrotation
					JOINT LeftArm
					{
						OFFSET 18.980635 5.765305 1.818600
						CHANNELS 3 Xrotation Yrotation Zrotation
						JOINT LeftForeArm
						{
							OFFSET 49.290169 0.000000 0.000000
							CHANNELS 3 Xrotation Yrotation Zrotation
							JOINT LeftHand
							{
								OFFSET 31.562012 0.000000 0.000000
								CHANNELS 3 Xrotation Yrotation Zrotation
								JOINT LeftHandThumb1
								{
									OFFSET 6.133995 -4.388519 7.076070
									CHANNELS 3 Xrotation Yrotation Zrotation
									JOINT LeftHandThumb2
									{
										OFFSET 6.037666 -3.485840 3.485847
										CHANNELS 3 Xrotation Yrotation Zrotation
										JOINT LeftHandThumb3
										{
											OFFSET 6.496506 -3.750763 3.750761
											CHANNELS 3 Xrotation Yrotation Zrotation
											JOINT LeftHandThumb4
											{
												OFFSET 5.616882 -3.242905 3.242910
												CHANNELS 3 Xrotation Yrotation Zrotation
												End Site
												{
													OFFSET -1.254608 7.132141 0.375429
												}
											}
										}
									}
								}
								JOINT LeftHandPinky1
								{
									OFFSET 18.920792 -0.453171 -11.426712
									CHANNELS 3 Xrotation Yrotation Zrotation
									JOINT LeftHandPinky2
									{
										OFFSET 4.919586 0.000000 0.000000
										CHANNELS 3 Xrotation Yrotation Zrotation
										JOINT LeftHandPinky3
										{
											OFFSET 5.233047 0.000000 0.000000
											CHANNELS 3 Xrotation Yrotation Zrotation
											JOINT LeftHandPinky4
											{
												OFFSET 5.571716 0.000000 0.000000
												CHANNELS 3 Xrotation Yrotation Zrotation
												End Site
												{
													OFFSET -3.459808 4.342407 -0.466164
												}
											}
										}
									}
								}
								JOINT LeftHandRing1
								{
									OFFSET 22.726120 -0.094986 -6.500475
									CHANNELS 3 Xrotation Yrotation Zrotation
									JOINT LeftHandRing2
									{
										OFFSET 6.408615 0.000000 0.000000
										CHANNELS 3 Xrotation Yrotation Zrotation
										JOINT LeftHandRing3
										{
											OFFSET 6.150223 0.000000 0.000000
											CHANNELS 3 Xrotation Yrotation Zrotation
											JOINT LeftHandRing4
											{
												OFFSET 6.145386 0.000000 0.000000
												CHANNELS 3 Xrotation Yrotation Zrotation
												End Site
												{
													OFFSET -3.671402 4.923981 -0.202372
												}
											}
										}
									}
								}
								JOINT LeftHandMiddle1
								{
									OFFSET 23.373947 0.000000 0.000001
									CHANNELS 3 Xrotation Yrotation Zrotation
									JOINT LeftHandMiddle2
									{
										OFFSET 6.996567 0.000000 0.000000
										CHANNELS 3 Xrotation Yrotation Zrotation
										JOINT LeftHandMiddle3
										{
											OFFSET 7.015945 0.000000 0.000000
											CHANNELS 3 Xrotation Yrotation Zrotation
											JOINT LeftHandMiddle4
											{
												OFFSET 7.721573 0.000000 0.000000
												CHANNELS 3 Xrotation Yrotation Zrotation
												End Site
												{
													OFFSET -4.651108 6.158463 0.251582
												}
											}
										}
									}
								}
								JOINT LeftHandIndex1
								{
									OFFSET 21.310577 -0.490082 6.209344
									CHANNELS 3 Xrotation Yrotation Zrotation
									JOINT LeftHandIndex2
									{
										OFFSET 7.536453 0.000000 0.000000
										CHANNELS 3 Xrotation Yrotation Zrotation
										JOINT LeftHandIndex3
										{
											OFFSET 7.512344 0.000000 0.000000
											CHANNELS 3 Xrotation Yrotation Zrotation
											JOINT LeftHandIndex4
											{
												OFFSET 10.212402 0.000000 0.000001
												CHANNELS 3 Xrotation Yrotation Zrotation
												End Site
												{
													OFFSET -5.180801 8.690506 1.388433
												}
											}
										}
									}
								}
							}
						}
					}
				}
				JOINT RightShoulder
				{
					OFFSET -17.399500 24.608795 1.168800
					CHANNELS 3 Xrotation Yrotation Zrotation
					JOINT RightArm
					{
						OFFSET -18.980635 5.765305 1.818600
						CHANNELS 3 Xrotation Yrotation Zrotation
						JOINT RightForeArm
						{
							OFFSET -49.290169 0.000000 0.000000
							CHANNELS 3 Xrotation Yrotation Zrotation
							JOINT RightHand
							{
								OFFSET -31.562012 0.000000 0.000000
								CHANNELS 3 Xrotation Yrotation Zrotation
								JOINT RightHandThumb1
								{
									OFFSET -6.133995 -4.388519 7.076070
									CHANNELS 3 Xrotation Yrotation Zrotation
									JOINT RightHandThumb2
									{
										OFFSET -6.037666 -3.485840 3.485847
										CHANNELS 3 Xrotation Yrotation Zrotation
										JOINT RightHandThumb3
										{
											OFFSET -6.496506 -3.750763 3.750761
											CHANNELS 3 Xrotation Yrotation Zrotation
											JOINT RightHandThumb4
											{
												OFFSET -5.616882 -3.242905 3.242910
												CHANNELS 3 Xrotation Yrotation Zrotation
												End Site
												{
													OFFSET 1.254608 7.132141 0.375429
												}
											}
										}
									}
								}
								JOINT RightHandIndex1
								{
									OFFSET -21.310577 -0.490082 6.209344
									CHANNELS 3 Xrotation Yrotation Zrotation
									JOINT RightHandIndex2
									{
										OFFSET -7.536453 0.000000 0.000000
										CHANNELS 3 Xrotation Yrotation Zrotation
										JOINT RightHandIndex3
										{
											OFFSET -7.512344 0.000000 0.000000
											CHANNELS 3 Xrotation Yrotation Zrotation
											JOINT RightHandIndex4
											{
												OFFSET -10.212402 0.000000 0.000001
												CHANNELS 3 Xrotation Yrotation Zrotation
												End Site
												{
													OFFSET 5.180801 8.690506 1.388433
												}
											}
										}
									}
								}
								JOINT RightHandMiddle1
								{
									OFFSET -23.373947 0.000000 0.000001
									CHANNELS 3 Xrotation Yrotation Zrotation
									JOINT RightHandMiddle2
									{
										OFFSET -6.996567 0.000000 0.000000
										CHANNELS 3 Xrotation Yrotation Zrotation
										JOINT RightHandMiddle3
										{
											OFFSET -7.015945 0.000000 0.000000
											CHANNELS 3 Xrotation Yrotation Zrotation
											JOINT RightHandMiddle4
											{
												OFFSET -7.721573 0.000000 0.000000
												CHANNELS 3 Xrotation Yrotation Zrotation
												End Site
												{
													OFFSET 4.651108 6.158463 0.251582
												}
											}
										}
									}
								}
								JOINT RightHandRing1
								{
									OFFSET -22.726120 -0.094986 -6.500475
									CHANNELS 3 Xrotation Yrotation Zrotation
									JOINT RightHandRing2
									{
										OFFSET -6.408615 0.000000 0.000000
										CHANNELS 3 Xrotation Yrotation Zrotation
										JOINT RightHandRing3
										{
											OFFSET -6.150223 0.000000 0.000000
											CHANNELS 3 Xrotation Yrotation Zrotation
											JOINT RightHandRing4
											{
												OFFSET -6.145386 0.000000 0.000000
												CHANNELS 3 Xrotation Yrotation Zrotation
												End Site
												{
													OFFSET 3.671402 4.923981 -0.202372
												}
											}
										}
									}
								}
								JOINT RightHandPinky1
								{
									OFFSET -18.920792 -0.453171 -11.426712
									CHANNELS 3 Xrotation Yrotation Zrotation
									JOINT RightHandPinky2
									{
										OFFSET -4.919586 0.000000 0.000000
										CHANNELS 3 Xrotation Yrotation Zrotation
										JOINT RightHandPinky3
										{
											OFFSET -5.233047 0.000000 0.000000
											CHANNELS 3 Xrotation Yrotation Zrotation
											JOINT RightHandPinky4
											{
												OFFSET -5.571716 0.000000 0.000000
												CHANNELS 3 Xrotation Yrotation Zrotation
												End Site
												{
													OFFSET 3.459808 4.342407 -0.466164
												}
											}
										}
									}
								}
							}
						}
					}
				}
			}
		}
	}
	JOINT LeftUpLeg
	{
		OFFSET 19.899099 -7.885101 -3.429500
		CHANNELS 3 Xrotation Yrotation Zrotation
		JOINT LeftLeg
		{
			OFFSET 1.745560 -36.997807 10.304700
			CHANNELS 3 Xrotation Yrotation Zrotation
			JOINT LeftFoot
			{
				OFFSET -1.745558 -29.803308 -13.615400
				CHANNELS 3 Xrotation Yrotation Zrotation
				JOINT LeftToeBase
				{
					OFFSET 1.181900 -18.539904 15.226099
					CHANNELS 3 Xrotation Yrotation Zrotation
					JOINT LeftToe_End
					{
						OFFSET -0.863701 1.402801 16.534700
						CHANNELS 3 Xrotation Yrotation Zrotation
						End Site
						{
							OFFSET 0.000000 16.616566 0.000000
						}
					}
				}
			}
		}
	}
	JOINT RightUpLeg
	{
		OFFSET -19.899099 -7.885101 -3.429500
		CHANNELS 3 Xrotation Yrotation Zrotation
		JOINT RightLeg
		{
			OFFSET -1.745560 -36.997807 10.304700
			CHANNELS 3 Xrotation Yrotation Zrotation
			JOINT RightFoot
			{
				OFFSET 1.745558 -29.803308 -13.615400
				CHANNELS 3 Xrotation Yrotation Zrotation
				JOINT RightToeBase
				{
					OFFSET -1.181900 -18.539904 15.226099
					CHANNELS 3 Xrotation Yrotation Zrotation
					JOINT RightToe_End
					{
						OFFSET 0.863701 1.402801 16.534700
						CHANNELS 3 Xrotation Yrotation Zrotation
						End Site
						{
							OFFSET 0.000000 16.616566 0.000000
						}
					}
				}
			}
		}
	}
}
MOTION
Frames: 4
Frame Time: 0.033333
-0.422017 115.526466 7.223381 -96.223760 -7.144879 0.220435 1.523753 0.667806 -2.010597 3.176681 1.782788 -0.631361 3.163999 1.768428 -0.627882 -6.167402 9.655905 -5.123013 -6.432069 29.024937 0.371284 -0.000000 -0.000002 -0.000000 1.199041 -11.561206 4.587987 31.616000 -22.217123 -52.499098 -0.000048 -100.234378 -0.000063 -71.941133 -18.779885 8.810848 -8.217169 -12.005624 2.184232 7.385531 23.148028 2.272619 -4.486883 24.342441 19.080069 -0.000000 0.000001 -0.000002 -2.564542 20.952556 -11.373674 1.249120 3.617354 -38.090732 0.663555 2.710091 -27.510648 -0.000000 0.000001 -0.000004 1.461026 9.296677 -12.217036 0.824635 2.998834 -30.744625 0.346200 1.985836 -19.776461 -0.000002 -0.000004 0.000005 0.128109 3.224942 -8.471284 0.518845 2.412322 -24.273743 0.159039 1.357098 -13.366381 -0.000000 0.000000 0.000011 1.893826 -2.157405 -2.115604 0.167005 1.390267 -13.699436 0.005995 0.265291 -2.589708 0.000000 0.000005 0.000002 1.353933 0.977155 -0.615575 18.193787 25.081230 50.228333 0.000179 98.942489 -0.000161 -68.887915 5.869496 -18.261708 -2.261876 -1.120286 0.646282 5.567607 -8.165285 -1.535109 -3.232778 -28.244335 -19.321109 -0.000001 -0.000001 0.000001 5.964611 13.157435 -4.708948 0.218010 -1.409590 17.581786 0.218847 -1.412251 17.616190 -0.000003 -0.000001 -0.000001 -0.455670 1.699327 6.933872 0.217452 -1.407877 17.559593 0.218167 -1.410149 17.588934 0.000004 0.000001 -0.000002 0.168322 -3.357289 16.054944 0.217973 -1.409535 17.580931 0.218235 -1.410330 17.591301 -0.000003 0.000004 -0.000006 -11.107677 -14.537513 14.890516 0.222269 -1.423007 17.754667 0.218296 -1.410517 17.593667 -0.000000 0.000001 0.000006 2.297715 14.861665 12.725429 8.912458 -1.460936 4.686722 37.074905 29.252993 -32.568019 -6.938706 0.000003 -0.000008 -0.000001 0.000000 -0.000000 -5.258893 -14.526969 -15.023727 11.930309 -1.308436 -5.101309 38.181348 -29.418158 30.807913 -5.644539 -0.000016 -0.000003 0.000001 0.000002 -0.000001 
-0.420024 115.537178 7.212631 -96.185210 -7.170158 0.224846 1.475183 0.664005 -1.985536 3.089931 1.770676 -0.616059 3.077083 1.755787 -0.610220 -6.048468 9.661718 -5.195063 -6.492255 28.945331 0.684439 -0.000000 -0.000000 0.000001 1.079432 -11.053050 3.949044 31.846956 -22.863266 -51.793003 -0.000180 -99.024677 -0.000216 -71.421499 -19.373179 7.844656 -8.350152 -12.158812 2.236404 7.385532 23.148022 2.272614 -4.491651 24.271680 19.063726 0.000001 0.000001 -0.000001 -2.868114 21.111462 -10.531852 1.211036 3.568322 -37.482961 0.644638 2.673530 -27.108170 0.000004 -0.000002 -0.000004 1.396668 9.344163 -11.499798 0.800855 2.958549 -30.287091 0.335125 1.954748 -19.454035 -0.000003 -0.000001 0.000003 0.117877 3.153367 -7.765002 0.500616 2.371527 -23.837007 0.150693 1.321524 -13.009618 0.000000 -0.000001 0.000006 1.996115 -2.318968 -1.350712 0.155502 1.342167 -13.216539 0.003994 0.216300 -2.111303 -0.000002 0.000003 0.000002 1.346932 0.843634 -0.160131 18.742556 25.127467 49.272291 0.000012 99.050065 0.000004 -69.291128 5.511301 -17.951588 -2.319817 -1.112623 0.555578 5.587940 -8.321836 -1.550453 -3.227307 -28.330561 -19.338169 0.000000 0.000002 -0.000000 6.034206 13.213130 -4.893668 0.218006 -1.409600 17.581786 0.218177 -1.410136 17.588733 -0.000003 -0.000003 -0.000002 -0.455108 1.701888 6.923117 0.217447 -1.407893 17.559697 0.218184 -1.410157 17.588961 0.000001 -0.000002 -0.000001 0.167178 -3.354157 16.110890 0.217983 -1.409528 17.580912 0.218232 -1.410325 17.591299 -0.000003 0.000002 -0.000001 -10.990727 -14.445913 14.957703 0.222244 -1.422920 17.753547 0.218282 -1.410513 17.593647 0.000003 -0.000002 0.000005 2.314742 14.844443 12.711059 8.848611 -1.430643 4.682235 37.105962 29.238790 -32.568285 -6.941256 0.000003 -0.000006 -0.000002 -0.000001 -0.000000 -5.285396 -14.552182 -15.019164 11.878071 -1.299179 -5.103632 38.201863 -29.420722 30.797972 -5.643339 0.000013 0.000005 0.000001 0.000000 -0.000000 
-0.416538 115.552155 7.200317 -96.143662 -7.194921 0.227368 1.419605 0.652437 -1.959095 2.993528 1.752518 -0.612385 2.980444 1.737038 -0.602673 -5.920221 9.684498 -5.278284 -6.617382 28.846365 1.113965 -0.000000 -0.000001 -0.000000 0.982371 -10.530879 3.256941 32.130822 -23.545697 -51.080352 -0.000017 -97.628149 -0.000077 -70.276001 -19.881323 6.344806 -8.473668 -12.286254 2.298642 7.385527 23.148032 2.272616 -4.499729 24.152346 19.036208 0.000000 0.000002 -0.000002 -3.162656 21.217069 -9.712344 1.170417 3.514826 -36.825405 0.625118 2.635082 -26.686611 0.000000 0.000000 -0.000006 1.330003 9.379797 -10.799703 0.775387 2.914562 -29.789908 0.323667 1.922022 -19.115389 -0.000003 -0.000003 0.000003 0.108688 3.082929 -7.071381 0.481430 2.327620 -23.368678 0.142268 1.284536 -12.639303 -0.000000 0.000000 0.000009 2.099484 -2.474152 -0.597797 0.143868 1.291632 -12.710226 0.002331 0.165713 -1.617342 -0.000001 0.000001 0.000001 1.351105 0.765226 0.421705 19.387531 25.066579 48.185188 0.000542 99.315308 -0.000536 -69.772329 5.010180 -17.574017 -2.399519 -1.100657 0.431162 5.615824 -8.536989 -1.571442 -3.219869 -28.449102 -19.361694 0.000000 -0.000001 0.000001 6.084278 13.252831 -5.026031 0.217987 -1.409605 17.581774 0.218171 -1.410138 17.588751 -0.000000 -0.000003 -0.000002 -0.458845 1.691515 6.984858 0.217465 -1.407899 17.559853 0.218183 -1.410143 17.588936 -0.000002 0.000002 -0.000004 0.165186 -3.348764 16.209135 0.217992 -1.409531 17.580914 0.218226 -1.410342 17.591309 -0.000001 0.000001 -0.000003 -10.830319 -14.319672 15.049444 0.222195 -1.422750 17.751563 0.218293 -1.410526 17.593655 -0.000003 0.000003 0.000003 2.320225 14.837273 12.696135 8.802464 -1.416812 4.681147 37.128133 29.235873 -32.573999 -6.943103 -0.000010 -0.000006 0.000000 0.000003 -0.000001 -5.308976 -14.580456 -15.017872 11.828403 -1.307420 -5.102655 38.205889 -29.428218 30.789427 -5.637175 -0.000008 -0.000000 -0.000000 0.000002 -0.000001 
-0.410161 115.572159 7.194817 -96.099327 -7.218328 0.226929 1.359119 0.635492 -1.930848 2.890084 1.721439 -0.613046 2.877152 1.704860 -0.602785 -5.786774 9.692980 -5.367146 -6.848693 28.793059 1.748598 -0.000000 -0.000002 -0.000000 0.907212 -9.978480 2.536518 32.541029 -24.290192 -50.323113 -0.000447 -96.162090 -0.000484 -68.609715 -20.591104 4.596338 -8.580407 -12.376093 2.371994 7.385528 23.148028 2.272621 -4.511874 23.974845 18.995260 -0.000001 0.000001 -0.000001 -3.430394 21.252560 -8.952797 1.127968 3.457516 -36.127329 0.605444 2.595630 -26.255601 -0.000002 -0.000004 -0.000004 1.264215 9.398678 -10.150038 0.748780 2.867662 -29.262573 0.312251 1.888784 -18.772094 -0.000007 -0.000002 -0.000000 0.100905 3.017245 -6.425579 0.461846 2.281798 -22.881648 0.134141 1.247797 -12.271911 0.000001 -0.000001 0.000008 2.197302 -2.613786 0.100648 0.132614 1.240726 -12.201233 0.001156 0.116250 -1.134587 -0.000003 0.000001 -0.000001 1.389106 0.810779 1.069969 20.149649 24.920927 47.047156 0.000453 99.684698 -0.000435 -70.852592 3.684068 -16.651658 -2.503984 -1.085127 0.267376 5.652355 -8.819908 -1.598875 -3.210139 -28.604935 -19.392630 -0.000001 0.000001 0.000001 6.077434 13.247417 -5.007949 0.217997 -1.409592 17.581778 0.218165 -1.410133 17.588734 -0.000001 -0.000001 -0.000001 -0.468830 1.659542 7.157275 0.217475 -1.407899 17.559991 0.218154 -1.410159 17.588955 0.000001 -0.000001 -0.000004 0.162070 -3.340468 16.361150 0.217979 -1.409531 17.580922 0.218228 -1.410330 17.591287 -0.000002 0.000001 -0.000003 -10.619974 -14.153112 15.169007 0.222139 -1.422610 17.749462 0.218292 -1.410517 17.593661 -0.000002 0.000003 0.000003 2.307761 14.831411 12.685798 8.813912 -1.411925 4.683110 37.113038 29.236635 -32.581512 -6.946982 -0.000020 0.000008 0.000000 -0.000001 0.000000 -5.340842 -14.606288 -15.019927 11.807914 -1.304549 -5.100148 38.193274 -29.429834 30.783850 -5.625646 0.000001 -0.000017 -0.000000 0.000001 -0.000000 
